<svg width="32" height="32" viewBox="0 0 32 32" fill="none" xmlns="http://www.w3.org/2000/svg">
<g clip-path="url(#clip0_6643_3691)">
<path d="M26.8089 6.30859C27.0047 6.34963 27.1894 6.43221 27.3505 6.55073C27.5322 6.69307 27.6714 6.88239 27.753 7.09816C28.2644 8.37831 28.7772 9.65776 29.2915 10.9365L31.0048 15.2065C31.3041 15.9539 31.6012 16.6993 31.9047 17.4446C31.9693 17.5968 32.0027 17.7604 32.0027 17.9258C32.0027 18.0911 31.9693 18.2547 31.9047 18.4069C31.0364 20.5713 30.1675 22.7372 29.2978 24.9045C29.227 25.1075 29.1009 25.2868 28.9338 25.4222C28.7666 25.5576 28.565 25.6437 28.3515 25.6709C28.0878 25.72 27.8152 25.6769 27.5795 25.5489C27.3439 25.4208 27.1595 25.2155 27.0576 24.9676C26.5686 23.7675 26.0902 22.5631 25.6076 21.3588C24.7871 19.3193 23.9687 17.2783 23.1524 15.236C22.4233 13.4182 21.6948 11.6018 20.967 9.7869C20.7246 9.18472 20.4907 8.57834 20.2378 7.97826C20.1683 7.8157 20.1353 7.63984 20.1413 7.46315C20.1473 7.28645 20.1921 7.11324 20.2725 6.95575C20.353 6.79827 20.467 6.66037 20.6067 6.55181C20.7464 6.44325 20.9082 6.36669 21.0808 6.32754C21.1019 6.32754 21.1208 6.31491 21.1419 6.30859H26.8089Z" fill="white"/>
<path d="M26.8089 6.30859C27.0047 6.34963 27.1894 6.43221 27.3505 6.55073C27.5322 6.69307 27.6714 6.88239 27.753 7.09816C28.2644 8.37831 28.7772 9.65776 29.2915 10.9365L31.0048 15.2065C31.3041 15.9539 31.6012 16.6993 31.9047 17.4446C31.9693 17.5968 32.0027 17.7604 32.0027 17.9258C32.0027 18.0911 31.9693 18.2547 31.9047 18.4069C31.0364 20.5713 30.1675 22.7372 29.2978 24.9045C29.227 25.1075 29.1009 25.2868 28.9338 25.4222C28.7666 25.5576 28.565 25.6437 28.3515 25.6709C28.0878 25.72 27.8152 25.6769 27.5795 25.5489C27.3439 25.4208 27.1595 25.2155 27.0576 24.9676C26.5686 23.7675 26.0902 22.5631 25.6076 21.3588C24.7871 19.3193 23.9687 17.2783 23.1524 15.236C22.4233 13.4182 21.6948 11.6018 20.967 9.7869C20.7246 9.18472 20.4907 8.57834 20.2378 7.97826C20.1683 7.8157 20.1353 7.63984 20.1413 7.46315C20.1473 7.28645 20.1921 7.11324 20.2725 6.95575C20.353 6.79827 20.467 6.66037 20.6067 6.55181C20.7464 6.44325 20.9082 6.36669 21.0808 6.32754C21.1019 6.32754 21.1208 6.31491 21.1419 6.30859H26.8089Z" fill="url(#paint0_linear_6643_3691)"/>
<path d="M6.67185 6.30859C6.73718 6.32754 6.8004 6.34228 6.86362 6.36334C7.02743 6.41438 7.17774 6.50137 7.30354 6.61795C7.42934 6.73453 7.52746 6.87774 7.5907 7.0371C8.15269 8.42533 8.71046 9.81357 9.26402 11.2018C9.81758 12.59 10.3796 13.9937 10.95 15.4128L11.7782 17.472C11.8402 17.6186 11.8722 17.7761 11.8722 17.9352C11.8722 18.0944 11.8402 18.2519 11.7782 18.3984C11.4705 19.1691 11.1614 19.9411 10.8509 20.7145L9.15022 24.9445C9.06091 25.1643 8.90828 25.3527 8.71169 25.4858C8.51509 25.6188 8.28337 25.6906 8.04591 25.6919C7.79541 25.6955 7.54991 25.6218 7.34287 25.4809C7.13583 25.3399 6.97731 25.1387 6.88891 24.9045C6.36205 23.5759 5.83518 22.2494 5.29567 20.923L3.13553 15.5413L0.939557 10.0669C0.66348 9.37632 0.387403 8.68361 0.0965732 7.993C-0.0261733 7.70536 -0.0321292 7.3813 0.0799608 7.08935C0.192051 6.7974 0.4134 6.56045 0.6972 6.42861C0.800673 6.38667 0.907019 6.35219 1.01543 6.32544L6.67185 6.30859Z" fill="url(#paint1_linear_6643_3691)"/>
<path d="M21.9254 18.1163C21.7736 18.6385 21.5523 19.1312 21.3416 19.6407C20.7698 21.071 20.1944 22.5021 19.6156 23.9338C19.4828 24.2728 19.3479 24.5886 19.2194 24.9192C19.1275 25.1511 18.9658 25.3487 18.7567 25.4849C18.5476 25.621 18.3013 25.689 18.0519 25.6793C17.8138 25.6729 17.583 25.5957 17.3889 25.4577C17.1949 25.3197 17.0464 25.1271 16.9623 24.9045C16.1278 22.8186 15.2918 20.7328 14.4544 18.6469C13.7323 16.853 13.0073 15.0549 12.2795 13.2526C11.577 11.4882 10.8746 9.72373 10.1721 7.95931C10.104 7.79804 10.0722 7.62378 10.079 7.44888C10.0858 7.27398 10.1311 7.10271 10.2115 6.94722C10.2919 6.79172 10.4056 6.6558 10.5445 6.54907C10.6833 6.44235 10.844 6.36744 11.0151 6.32965L11.0846 6.30859H16.7473L16.8 6.32544C16.9995 6.36736 17.1851 6.45932 17.3392 6.59266C17.4933 6.72601 17.6109 6.89634 17.6809 7.08763C18.0097 7.90878 18.3399 8.73063 18.6715 9.55319C19.5355 11.7092 20.3996 13.8653 21.2636 16.0213C21.4912 16.5898 21.7441 17.1478 21.9296 17.731L21.9254 18.1163Z" fill="white"/>
<path d="M21.9254 18.1163C21.7736 18.6385 21.5523 19.1312 21.3416 19.6407C20.7698 21.071 20.1944 22.5021 19.6156 23.9338C19.4828 24.2728 19.3479 24.5886 19.2194 24.9192C19.1275 25.1511 18.9658 25.3487 18.7567 25.4849C18.5476 25.621 18.3013 25.689 18.0519 25.6793C17.8138 25.6729 17.583 25.5957 17.3889 25.4577C17.1949 25.3197 17.0464 25.1271 16.9623 24.9045C16.1278 22.8186 15.2918 20.7328 14.4544 18.6469C13.7323 16.853 13.0073 15.0549 12.2795 13.2526C11.577 11.4882 10.8746 9.72373 10.1721 7.95931C10.104 7.79804 10.0722 7.62378 10.079 7.44888C10.0858 7.27398 10.1311 7.10271 10.2115 6.94722C10.2919 6.79172 10.4056 6.6558 10.5445 6.54907C10.6833 6.44235 10.844 6.36744 11.0151 6.32965L11.0846 6.30859H16.7473L16.8 6.32544C16.9995 6.36736 17.1851 6.45932 17.3392 6.59266C17.4933 6.72601 17.6109 6.89634 17.6809 7.08763C18.0097 7.90878 18.3399 8.73063 18.6715 9.55319C19.5355 11.7092 20.3996 13.8653 21.2636 16.0213C21.4912 16.5898 21.7441 17.1478 21.9296 17.731L21.9254 18.1163Z" fill="url(#paint2_linear_6643_3691)"/>
</g>
<defs>
<linearGradient id="paint0_linear_6643_3691" x1="23.4209" y1="5.46203" x2="31.9624" y2="25.6156" gradientUnits="userSpaceOnUse">
<stop stop-color="#DE35A0"/>
<stop offset="1" stop-color="#9120AC"/>
</linearGradient>
<linearGradient id="paint1_linear_6643_3691" x1="3.2831" y1="5.46197" x2="11.8206" y2="25.6219" gradientUnits="userSpaceOnUse">
<stop stop-color="#DE35A0"/>
<stop offset="1" stop-color="#9120AC"/>
</linearGradient>
<linearGradient id="paint2_linear_6643_3691" x1="13.3555" y1="5.46248" x2="21.8945" y2="25.6031" gradientUnits="userSpaceOnUse">
<stop stop-color="#DE35A0"/>
<stop offset="1" stop-color="#9120AC"/>
</linearGradient>
<clipPath id="clip0_6643_3691">
<rect width="32" height="32" fill="white"/>
</clipPath>
</defs>
</svg>
