<svg xmlns="http://www.w3.org/2000/svg" width="142" height="23" fill="none"><path fill="#fff" fill-rule="evenodd" d="M69.64 2.166a2.093 2.093 0 0 0-2.087 2.113 2.088 2.088 0 1 0 4.175 0c0-1.184-.94-2.113-2.087-2.113Zm1.837 5.271h-3.648v12.518h3.648V7.437ZM46.54 2.63h3.556v4.808h2.73v3.344h-2.73v4.412c0 .65.505 1.161 1.124 1.161h1.583v3.553H51.22c-2.57 0-4.68-2.113-4.68-4.737v-4.413h-1.65V7.414h1.651V2.63Zm14.98 4.529c-1.652 0-2.96.697-3.464 1.788V2.63h-3.648v17.302h3.648v-7.014c0-1.463.94-2.485 2.27-2.485 1.354 0 2.111.883 2.111 2.37v7.152h3.648v-7.617c0-3.252-1.652-5.18-4.565-5.18Zm15.162.256v1.718c.55-1.254 1.881-1.974 3.556-1.997.252 0 .573.023.963.07v3.483a6.553 6.553 0 0 0-1.215-.116c-2.088 0-3.304 1.185-3.304 3.251v6.108h-3.647V7.415h3.647Zm14.773 1.648c-.367-1.091-1.812-1.858-3.67-1.858-1.743 0-3.212.627-4.381 1.881-1.147 1.231-1.744 2.787-1.744 4.599 0 1.811.597 3.344 1.744 4.621 1.17 1.23 2.638 1.858 4.381 1.858 1.858 0 3.303-.767 3.67-1.858v1.649h3.648V2.63h-3.648v6.433Zm-.734 6.851c-.62.604-1.376.883-2.27.883-.872 0-1.63-.302-2.226-.883a3.054 3.054 0 0 1-.917-2.23c0-.859.298-1.602.917-2.206a2.994 2.994 0 0 1 2.225-.929c.918 0 1.675.302 2.271.93.643.603.964 1.346.964 2.206 0 .859-.321 1.602-.964 2.229Zm14.911-8.43 3.304 5.945 2.225-5.992h3.578l-5.092 13.238-4.015-7.2-4.014 7.2-5.07-13.238h3.579l2.202 5.992 3.303-5.945Zm15.117-.348c-1.881 0-3.464.604-4.703 1.812-1.215 1.184-1.835 2.763-1.835 4.714v.116c0 1.95.62 3.53 1.835 4.714 1.262 1.162 2.868 1.765 4.886 1.765 1.881 0 3.418-.371 4.588-1.138v-3.228c-1.147.813-2.615 1.208-4.381 1.208-1.927 0-3.189-.952-3.258-2.438h9.061c.046-.372.069-.79.069-1.208 0-1.788-.596-3.275-1.743-4.482-1.147-1.231-2.684-1.835-4.519-1.835Zm-2.868 5.132c.023-.58.322-1.068.872-1.463.574-.394 1.216-.603 1.996-.603 1.445 0 2.569.952 2.569 2.066h-5.437Zm17.825-5.063c1.743 0 3.211.627 4.358 1.881 1.17 1.254 1.767 2.764 1.767 4.575 0 1.812-.597 3.345-1.767 4.622-1.147 1.23-2.615 1.858-4.358 1.858-1.858 0-3.304-.767-3.671-1.858v1.649h-3.647V2.63h3.647v6.433c.367-1.091 1.813-1.858 3.671-1.858Zm-.666 9.592c.872 0 1.606-.28 2.226-.883.619-.627.917-1.37.917-2.23 0-.859-.298-1.602-.917-2.206-.597-.627-1.354-.929-2.226-.929-.894 0-1.651.302-2.293.93-.62.603-.941 1.346-.941 2.206 0 .859.321 1.602.941 2.229.619.58 1.376.883 2.293.883Z" clip-rule="evenodd"/><path fill="url(#a)" d="M20.453-.002c.23.048.448.145.637.284.213.168.376.391.471.645l1.81 4.527c.668 1.677 1.34 3.354 2.014 5.032.352.88.701 1.76 1.058 2.638a1.456 1.456 0 0 1 0 1.135l-3.067 7.651c-.203.507-.57.822-1.112.904-.673.101-1.275-.231-1.518-.821-.575-1.416-1.138-2.835-1.705-4.254l-2.886-7.218a5981.81 5981.81 0 0 0-2.566-6.424c-.284-.71-.559-1.425-.856-2.13A1.425 1.425 0 0 1 13.726.02c.024-.006.048-.015.072-.022h6.655Z"/><path fill="url(#b)" d="M8.5-.002c.076.021.152.04.225.065a1.345 1.345 0 0 1 .852.793c.659 1.635 1.314 3.271 1.967 4.909a63876.463 63876.463 0 0 1 2.955 7.382 1.41 1.41 0 0 1 0 1.095l-1.093 2.726-2.003 4.987a1.41 1.41 0 0 1-1.297.88 1.432 1.432 0 0 1-1.366-.928c-.618-1.567-1.248-3.13-1.872-4.693-.838-2.118-1.68-4.234-2.525-6.348L1.761 4.408c-.326-.815-.649-1.631-.98-2.445A1.422 1.422 0 0 1 1.489.118a2.72 2.72 0 0 1 .373-.12H8.5Z"/><path fill="url(#c)" d="M38.28 13.914c-.183.616-.456 1.197-.688 1.79-.672 1.69-1.348 3.38-2.027 5.068-.156.387-.314.773-.466 1.162a1.43 1.43 0 0 1-1.328.897 1.425 1.425 0 0 1-1.324-.906L29.5 14.551l-2.55-6.37-2.495-6.24a1.41 1.41 0 0 1 .994-1.915l.081-.024h6.655c.021.006.041.015.062.02a1.416 1.416 0 0 1 1.037.888 13328.9 13328.9 0 0 1 4.212 10.537c.266.67.563 1.327.782 2.015l.002.452Z"/><defs><linearGradient id="a" x1="11.588" x2="27.619" y1="1.852" y2="17.852" gradientUnits="userSpaceOnUse"><stop stop-color="#FF00A8"/><stop offset="1" stop-color="#6200C6"/></linearGradient><linearGradient id="b" x1="-.359" x2="15.669" y1="1.847" y2="17.843" gradientUnits="userSpaceOnUse"><stop stop-color="#FF00A8"/><stop offset="1" stop-color="#6200C6"/></linearGradient><linearGradient id="c" x1="23.316" x2="39.345" y1="1.846" y2="17.843" gradientUnits="userSpaceOnUse"><stop stop-color="#FF00A8"/><stop offset="1" stop-color="#6200C6"/></linearGradient></defs></svg>