<svg xmlns="http://www.w3.org/2000/svg" width="142" height="23" fill="none"><path fill="#000" fill-rule="evenodd" d="M69.64 2.164a2.093 2.093 0 0 0-2.087 2.113 2.088 2.088 0 1 0 4.175 0c0-1.184-.94-2.113-2.087-2.113Zm1.837 5.271h-3.648v12.518h3.648V7.435ZM46.54 2.628h3.556v4.808h2.73v3.344h-2.73v4.412c0 .65.505 1.161 1.124 1.161h1.583v3.553H51.22c-2.57 0-4.68-2.113-4.68-4.737v-4.412h-1.65V7.412h1.651V2.628Zm14.98 4.529c-1.652 0-2.96.697-3.464 1.788V2.628h-3.648V19.93h3.648v-7.014c0-1.463.94-2.485 2.27-2.485 1.354 0 2.111.883 2.111 2.37v7.152h3.648v-7.617c0-3.252-1.652-5.18-4.565-5.18Zm15.162.256V9.13c.55-1.254 1.881-1.974 3.556-1.997.252 0 .573.023.963.07v3.483a6.561 6.561 0 0 0-1.215-.116c-2.088 0-3.304 1.185-3.304 3.252v6.107h-3.647V7.413h3.647ZM91.456 9.06c-.367-1.091-1.812-1.858-3.67-1.858-1.743 0-3.212.627-4.381 1.881-1.147 1.231-1.744 2.787-1.744 4.599 0 1.811.597 3.344 1.744 4.621 1.17 1.23 2.638 1.858 4.381 1.858 1.858 0 3.303-.767 3.67-1.858v1.649h3.648V2.628h-3.648v6.433Zm-.734 6.851c-.62.604-1.376.882-2.27.882-.872 0-1.63-.301-2.226-.882a3.054 3.054 0 0 1-.917-2.23c0-.859.298-1.602.917-2.206a2.995 2.995 0 0 1 2.225-.929c.918 0 1.675.302 2.271.93.643.603.964 1.346.964 2.206 0 .859-.321 1.602-.964 2.229Zm14.911-8.43 3.304 5.945 2.225-5.992h3.578l-5.092 13.238-4.015-7.2-4.014 7.2-5.07-13.238h3.579l2.202 5.992 3.303-5.945Zm15.117-.348c-1.881 0-3.464.604-4.703 1.812-1.215 1.184-1.835 2.763-1.835 4.714v.116c0 1.95.62 3.53 1.835 4.714 1.262 1.162 2.868 1.765 4.886 1.765 1.881 0 3.418-.371 4.588-1.138V15.89c-1.147.813-2.615 1.208-4.381 1.208-1.927 0-3.189-.952-3.258-2.439h9.061c.046-.371.069-.79.069-1.207 0-1.788-.596-3.275-1.743-4.482-1.147-1.231-2.684-1.835-4.519-1.835Zm-2.868 5.133c.023-.581.322-1.069.872-1.463.574-.395 1.216-.604 1.996-.604 1.445 0 2.569.952 2.569 2.067h-5.437Zm17.825-5.064c1.743 0 3.211.627 4.358 1.881 1.17 1.255 1.767 2.764 1.767 4.575 0 1.812-.597 3.344-1.767 4.622-1.147 1.23-2.615 1.858-4.358 1.858-1.858 0-3.304-.767-3.671-1.858v1.649h-3.647V2.628h3.647v6.433c.367-1.091 1.813-1.858 3.671-1.858Zm-.666 9.591c.872 0 1.606-.278 2.226-.882.619-.627.917-1.37.917-2.23 0-.859-.298-1.602-.917-2.206-.597-.627-1.354-.929-2.226-.929-.894 0-1.651.302-2.293.93-.62.603-.941 1.346-.941 2.206 0 .859.321 1.602.941 2.229.619.58 1.376.882 2.293.882Z" clip-rule="evenodd"/><path fill="url(#a)" d="M20.453 0c.23.048.448.145.637.284.213.168.376.391.471.645l1.81 4.527c.668 1.677 1.34 3.354 2.014 5.032.352.88.701 1.76 1.058 2.638a1.456 1.456 0 0 1 0 1.135l-3.067 7.652c-.203.506-.57.82-1.112.903-.673.101-1.275-.231-1.518-.821-.575-1.416-1.138-2.835-1.705-4.254l-2.886-7.218a7158.39 7158.39 0 0 0-2.566-6.424c-.284-.71-.559-1.425-.856-2.13a1.425 1.425 0 0 1 .993-1.947c.024-.006.048-.015.072-.022h6.655Z"/><path fill="url(#b)" d="M8.5 0c.076.021.152.04.225.065a1.345 1.345 0 0 1 .852.793 1431.36 1431.36 0 0 1 1.967 4.909 72998.674 72998.674 0 0 1 2.955 7.382 1.41 1.41 0 0 1 0 1.095 11034.069 11034.069 0 0 1-3.096 7.713 1.41 1.41 0 0 1-1.297.88 1.432 1.432 0 0 1-1.366-.928c-.618-1.567-1.248-3.13-1.872-4.693-.838-2.118-1.68-4.234-2.525-6.348L1.761 4.41c-.326-.815-.649-1.631-.98-2.445A1.422 1.422 0 0 1 1.489.12 2.7 2.7 0 0 1 1.862 0H8.5Z"/><path fill="url(#c)" d="M38.28 13.916c-.183.616-.456 1.197-.688 1.79-.672 1.69-1.348 3.38-2.027 5.068-.156.387-.314.773-.466 1.162a1.428 1.428 0 0 1-2.129.648 1.43 1.43 0 0 1-.523-.657L29.5 14.553l-2.55-6.37-2.495-6.24a1.41 1.41 0 0 1 .994-1.915l.081-.024h6.655c.021.006.041.015.062.02a1.416 1.416 0 0 1 1.037.888 13507.13 13507.13 0 0 1 4.212 10.536c.266.67.563 1.328.782 2.016l.002.452Z"/><defs><linearGradient id="a" x1="11.588" x2="27.619" y1="1.854" y2="17.854" gradientUnits="userSpaceOnUse"><stop stop-color="#FF00A8"/><stop offset="1" stop-color="#6200C6"/></linearGradient><linearGradient id="b" x1="-.359" x2="15.669" y1="1.849" y2="17.844" gradientUnits="userSpaceOnUse"><stop stop-color="#FF00A8"/><stop offset="1" stop-color="#6200C6"/></linearGradient><linearGradient id="c" x1="23.316" x2="39.345" y1="1.848" y2="17.845" gradientUnits="userSpaceOnUse"><stop stop-color="#FF00A8"/><stop offset="1" stop-color="#6200C6"/></linearGradient></defs></svg>